<svg width="1802" height="1803" viewBox="0 0 1802 1803" fill="none" xmlns="http://www.w3.org/2000/svg">
<path d="M827.382 1275.56C730.641 1289.41 654.855 1264.08 610.44 1212.09C566.026 1160.09 552.861 1081.28 581.666 987.89C610.472 894.5 675.78 804.301 758.107 733.979C840.435 663.656 939.735 613.253 1036.48 599.4C1133.22 585.548 1209.01 610.872 1253.42 662.869C1297.84 714.866 1311 793.679 1282.2 887.066C1253.39 980.456 1188.08 1070.66 1105.75 1140.98C1023.43 1211.3 924.127 1261.7 827.382 1275.56Z" stroke="url(#paint0_linear_69_596)" stroke-width="1.20396"/>
<path d="M816.4 1263.1C719.546 1276.97 643.574 1251.62 599.023 1199.46C554.472 1147.31 541.316 1068.31 570.155 974.814C598.994 881.318 664.363 791.045 746.744 720.678C829.124 650.311 928.507 599.857 1025.36 585.989C1122.21 572.121 1198.19 597.465 1242.74 649.622C1287.29 701.779 1300.44 780.778 1271.61 874.273C1242.77 967.769 1177.4 1058.04 1095.02 1128.41C1012.64 1198.78 913.254 1249.23 816.4 1263.1Z" stroke="url(#paint1_linear_69_596)" stroke-width="0.240792"/>
<path d="M806.426 1321.7C693.147 1335.71 603.484 1303.92 550.015 1241.32C496.547 1178.73 479.165 1085.2 510.71 975.499C542.255 865.798 616.746 760.769 711.706 679.657C806.666 598.545 922.049 541.389 1035.33 527.38C1148.61 513.373 1238.27 545.162 1291.74 607.759C1345.21 670.356 1362.59 763.886 1331.05 873.582C1299.5 983.284 1225.01 1088.31 1130.05 1169.43C1035.09 1250.54 919.71 1307.69 806.426 1321.7Z" stroke="url(#paint2_linear_69_596)" stroke-width="1.20396"/>
<path d="M806.426 1321.7C693.147 1335.71 603.484 1303.92 550.015 1241.32C496.547 1178.73 479.165 1085.2 510.71 975.499C542.255 865.798 616.746 760.769 711.706 679.657C806.666 598.545 922.049 541.389 1035.33 527.38C1148.61 513.373 1238.27 545.162 1291.74 607.759C1345.21 670.356 1362.59 763.886 1331.05 873.582C1299.5 983.284 1225.01 1088.31 1130.05 1169.43C1035.09 1250.54 919.71 1307.69 806.426 1321.7Z" stroke="url(#paint3_linear_69_596)" stroke-opacity="0.2" stroke-width="1.20396"/>
<path d="M796.391 1309.92C678.699 1318.75 583.215 1280.19 523.929 1210.78C464.643 1141.38 441.483 1041.04 468.607 926.175C495.733 811.303 568.009 703.694 662.96 622.59C757.91 541.486 875.495 486.921 993.195 478.087C1110.89 469.253 1206.37 507.814 1265.66 577.221C1324.94 646.629 1348.1 746.967 1320.98 861.831C1293.85 976.703 1221.58 1084.31 1126.63 1165.42C1031.68 1246.52 914.091 1301.08 796.391 1309.92Z" stroke="url(#paint4_linear_69_596)" stroke-width="1.20396"/>
<rect x="767.815" y="851.083" width="4.57311" height="4.57311" transform="rotate(-85.503 767.815 851.083)" fill="#00F0FF" fill-opacity="0.5"/>
<rect x="768.002" y="666.602" width="1.88565" height="1.88565" transform="rotate(-85.503 768.002 666.602)" fill="#00F0FF"/>
<rect width="2.47636" height="2.47636" transform="matrix(-0.078406 0.996921 0.996922 0.0784061 1139.8 631.825)" fill="#00F0FF"/>
<rect x="835.94" y="617.146" width="2.85182" height="2.85182" transform="rotate(-85.503 835.94 617.146)" fill="#00F0FF"/>
<rect x="844.124" y="658.705" width="1.69013" height="1.69013" transform="rotate(-85.503 844.124 658.705)" fill="#00F0FF"/>
<rect x="851.316" y="928.761" width="4.57311" height="4.57311" transform="rotate(-85.503 851.316 928.761)" fill="#00F0FF"/>
<rect x="718.654" y="1010.04" width="4.57311" height="4.57311" transform="rotate(-85.503 718.654 1010.04)" fill="#0D6597" fill-opacity="0.5"/>
<rect x="681.729" y="869.548" width="3.19614" height="3.19614" transform="rotate(-85.503 681.729 869.548)" fill="#3DFFFB"/>
<rect x="1056.6" y="1073.51" width="5.94404" height="5.94404" transform="rotate(-85.503 1056.6 1073.51)" fill="#0D6597" fill-opacity="0.5"/>
<rect width="6.34649" height="6.34649" transform="matrix(0.078411 -0.996921 0.996922 0.0784011 1324.14 963.52)" fill="#FF0030" fill-opacity="0.5"/>
<rect width="12.8175" height="12.8175" transform="matrix(0.0784036 -0.996922 0.996921 0.0784085 1376.49 830.173)" fill="#FF0030" fill-opacity="0.5"/>
<rect width="5.96427" height="5.96427" transform="matrix(-0.0784061 0.996922 0.996922 0.0784061 1231.01 645.902)" fill="#FF0030" fill-opacity="0.5"/>
<rect width="6.34649" height="6.34649" transform="matrix(0.078411 -0.996921 0.996922 0.0784011 1380.84 647.414)" fill="#FF0030" fill-opacity="0.5"/>
<rect width="6.34649" height="6.34649" transform="matrix(0.0784011 -0.996922 0.996921 0.078411 1403.5 1079.59)" fill="#FF0030" fill-opacity="0.5"/>
<rect x="1219.05" y="1192.6" width="6.34649" height="6.34649" transform="rotate(-85.503 1219.05 1192.6)" fill="#FF0030" fill-opacity="0.5"/>
<rect width="4.44389" height="4.44388" transform="matrix(0.078399 -0.996922 0.996921 0.0784131 1250.91 1037.87)" fill="#FF0030" fill-opacity="0.5"/>
<rect x="1269.17" y="1093.36" width="8.26454" height="8.26454" transform="rotate(-85.503 1269.17 1093.36)" fill="#FF0030" fill-opacity="0.5"/>
<rect width="5.43657" height="5.43657" transform="matrix(-0.958331 -0.28566 0.285693 -0.958321 1119.6 828.559)" fill="#AC8D1D" fill-opacity="0.5"/>
<rect width="4.25311" height="4.25311" transform="matrix(-0.996921 -0.0784134 0.0783987 -0.996922 1015.65 756.283)" fill="#00D1FF"/>
<rect width="5.10915" height="5.10915" transform="matrix(0.958326 0.285676 0.285676 -0.958326 837.079 849.503)" fill="#001AFF" fill-opacity="0.5"/>
<rect x="865.229" y="724.384" width="5.43657" height="5.43657" transform="rotate(-163.401 865.229 724.384)" fill="#AC8D1D" fill-opacity="0.5"/>
<rect width="5.43657" height="5.43657" transform="matrix(-0.958331 -0.28566 0.285693 -0.958321 1230.97 782.969)" fill="#AC8D1D" fill-opacity="0.5"/>
<rect x="1032.67" y="637.686" width="3.93056" height="3.93056" transform="rotate(-175.503 1032.67 637.686)" fill="#AC8D1D" fill-opacity="0.5"/>
<rect width="3.80351" height="3.80351" transform="matrix(-0.958333 -0.285652 0.2857 -0.958319 1168.68 903.183)" fill="#AC8D1D" fill-opacity="0.5"/>
<rect x="1218.39" y="897.864" width="7.07358" height="7.07358" transform="rotate(-163.401 1218.39 897.864)" fill="#AC8D1D" fill-opacity="0.5"/>
<rect width="3.04573" height="3.04573" transform="matrix(0.0784165 -0.996921 0.996922 0.0783957 806.552 856.047)" fill="#00FFF0" fill-opacity="0.6"/>
<rect x="779.769" y="1056.89" width="3.43135" height="3.43135" transform="rotate(-85.503 779.769 1056.89)" fill="#BDFF00"/>
<rect width="3.78863" height="3.78863" transform="matrix(-0.0784062 0.996921 0.996922 0.078406 664.837 816.816)" fill="#BDFF00"/>
<rect x="740.59" y="763.159" width="4.03142" height="4.03142" transform="rotate(-85.503 740.59 763.159)" fill="#BDFF00"/>
<rect width="4.03142" height="4.03142" transform="matrix(0.0783984 -0.996922 0.996921 0.0784138 1035.41 920.973)" fill="#00FFF0" fill-opacity="0.5"/>
<rect x="930.567" y="969.145" width="2.20999" height="2.20999" transform="rotate(-85.503 930.567 969.145)" fill="#00FFF0" fill-opacity="0.5"/>
<rect x="858.14" y="1105.44" width="4.03142" height="4.03142" transform="rotate(-120.813 858.14 1105.44)" fill="#AC8D1D" fill-opacity="0.5"/>
<rect x="816.9" y="1013.07" width="2.81467" height="2.81467" transform="rotate(-85.503 816.9 1013.07)" fill="#00D1FF" fill-opacity="0.6"/>
<rect x="844.529" y="1035.61" width="7.58361" height="7.58361" transform="rotate(-85.503 844.529 1035.61)" fill="#6100FF" fill-opacity="0.5"/>
<g opacity="0.5">
<rect x="654.487" y="748.132" width="3.04573" height="3.04573" transform="rotate(-85.5031 654.487 748.132)" fill="#00FFF0" fill-opacity="0.6"/>
<rect width="3.43135" height="3.43135" transform="matrix(0.0784151 -0.996921 0.996922 0.0783971 627.705 948.978)" fill="#BDFF00"/>
<rect width="3.78863" height="3.78863" transform="matrix(-0.078406 0.996922 0.996921 0.0784062 512.773 708.905)" fill="#BDFF00"/>
<rect width="4.03142" height="4.03142" transform="matrix(0.0783982 -0.996922 0.996921 0.078414 588.525 655.244)" fill="#BDFF00"/>
<rect x="883.345" y="813.058" width="4.03142" height="4.03142" transform="rotate(-85.5031 883.345 813.058)" fill="#00FFF0" fill-opacity="0.5"/>
<rect x="778.503" y="861.23" width="2.20999" height="2.20999" transform="rotate(-85.5031 778.503 861.23)" fill="#00FFF0" fill-opacity="0.5"/>
<rect x="706.077" y="997.523" width="4.03142" height="4.03142" transform="rotate(-120.813 706.077 997.523)" fill="#AC8D1D" fill-opacity="0.5"/>
<rect x="664.837" y="905.157" width="2.81467" height="2.81467" transform="rotate(-85.5031 664.837 905.157)" fill="#00D1FF" fill-opacity="0.6"/>
<rect width="7.58361" height="7.58361" transform="matrix(0.0784018 -0.996922 0.996921 0.0784103 692.465 927.699)" fill="#6100FF" fill-opacity="0.5"/>
</g>
<path d="M712.749 680.626L706.933 651.387L735.035 661.338L740.851 690.577L712.749 680.626Z" fill="url(#paint5_linear_69_596)"/>
<path d="M735.034 661.343L706.933 651.393L684.615 704.977L735.034 661.343Z" fill="url(#paint6_linear_69_596)" fill-opacity="0.6"/>
<path d="M735.034 661.344L740.884 690.573L684.615 704.977L735.034 661.344Z" fill="url(#paint7_linear_69_596)"/>
<path d="M822.033 580.617L849.426 629.843L806.395 621.55L822.033 580.617Z" fill="url(#paint8_linear_69_596)"/>
<path d="M822.036 580.618L849.429 629.843L929.375 553.12L822.036 580.618Z" fill="url(#paint9_linear_69_596)"/>
<path d="M755.808 588.036L806.417 621.547L822.035 580.618L755.808 588.036Z" fill="url(#paint10_linear_69_596)"/>
<path d="M808.212 682.211L806.416 621.544L755.808 588.04L727.822 604.291L736.007 660.725L779.65 697.427L808.212 682.211Z" fill="url(#paint11_linear_69_596)" fill-opacity="0.5"/>
<path d="M784.908 665.747L833.232 680.432L849.429 629.843L822.036 580.617L770.507 567.715L757.515 616.521L784.908 665.747Z" fill="url(#paint12_radial_69_596)" fill-opacity="0.5"/>
<path d="M757.517 616.52L784.909 665.746L736.001 660.724L757.517 616.52Z" fill="url(#paint13_linear_69_596)"/>
<path d="M757.516 616.521L784.909 665.747L929.374 553.118L757.516 616.521Z" fill="url(#paint14_linear_69_596)" fill-opacity="0.9"/>
<path d="M779.653 697.428L784.909 665.747L736.001 660.725L779.653 697.428Z" fill="url(#paint15_linear_69_596)" fill-opacity="0.5"/>
<path d="M727.822 604.287L757.515 616.52L736.003 660.729L727.822 604.287Z" fill="url(#paint16_linear_69_596)" fill-opacity="0.5"/>
<path d="M779.653 697.431L784.909 665.749L833.232 680.435L779.653 697.431Z" fill="url(#paint17_linear_69_596)"/>
<path d="M727.823 604.286L757.517 616.52L770.508 567.714L727.823 604.286Z" fill="url(#paint18_linear_69_596)"/>
<path d="M727.823 604.286L757.517 616.52L770.508 567.714L727.823 604.286Z" fill="url(#paint19_linear_69_596)" fill-opacity="0.6"/>
<path d="M929.377 553.118L784.909 665.749L833.232 680.434L929.377 553.118Z" fill="url(#paint20_linear_69_596)" fill-opacity="0.9"/>
<path d="M929.376 553.116L757.512 616.516L770.504 567.71L929.376 553.116Z" fill="url(#paint21_linear_69_596)" fill-opacity="0.9"/>
<defs>
<linearGradient id="paint0_linear_69_596" x1="673.979" y1="635.486" x2="954.382" y2="963.761" gradientUnits="userSpaceOnUse">
<stop stop-color="#4B1313" stop-opacity="0.6"/>
<stop offset="1" stop-color="#4B1313" stop-opacity="0"/>
</linearGradient>
<linearGradient id="paint1_linear_69_596" x1="731.525" y1="702.861" x2="1095.1" y2="1128.5" gradientUnits="userSpaceOnUse">
<stop stop-color="#8FBCFF" stop-opacity="0.6"/>
<stop offset="1" stop-color="#8FBCFF" stop-opacity="0"/>
</linearGradient>
<linearGradient id="paint2_linear_69_596" x1="598.063" y1="546.612" x2="982.42" y2="996.588" gradientUnits="userSpaceOnUse">
<stop stop-color="white" stop-opacity="0.6"/>
<stop offset="0.34375" stop-color="#4B1313" stop-opacity="0.6"/>
<stop offset="1" stop-color="#4B1313" stop-opacity="0"/>
</linearGradient>
<linearGradient id="paint3_linear_69_596" x1="949.253" y1="550.784" x2="985.654" y2="708.453" gradientUnits="userSpaceOnUse">
<stop stop-color="#4B1313"/>
<stop offset="0.234164" stop-color="white" stop-opacity="0.765836"/>
<stop offset="1" stop-color="#4B1313" stop-opacity="0"/>
</linearGradient>
<linearGradient id="paint4_linear_69_596" x1="642.387" y1="598.504" x2="920.655" y2="924.279" gradientUnits="userSpaceOnUse">
<stop stop-color="#4B1313" stop-opacity="0.6"/>
<stop offset="1" stop-color="#4B1313" stop-opacity="0"/>
</linearGradient>
<linearGradient id="paint5_linear_69_596" x1="705.615" y1="669.664" x2="742.169" y2="672.3" gradientUnits="userSpaceOnUse">
<stop stop-color="#FF8660"/>
<stop offset="1" stop-color="#5E0C1B" stop-opacity="0"/>
</linearGradient>
<linearGradient id="paint6_linear_69_596" x1="714.118" y1="647.531" x2="684.46" y2="704.798" gradientUnits="userSpaceOnUse">
<stop offset="0.170794" stop-color="#A93B3B"/>
<stop offset="0.537799" stop-color="#ED8F5A" stop-opacity="0.8"/>
<stop offset="0.791667" stop-color="white"/>
</linearGradient>
<linearGradient id="paint7_linear_69_596" x1="684.815" y1="705.209" x2="738.486" y2="687.303" gradientUnits="userSpaceOnUse">
<stop stop-color="#FF603D"/>
<stop offset="0.427083" stop-color="#FF507A" stop-opacity="0.69"/>
<stop offset="0.977116" stop-color="#FF6B3D"/>
</linearGradient>
<linearGradient id="paint8_linear_69_596" x1="782.842" y1="666.894" x2="742.723" y2="609.8" gradientUnits="userSpaceOnUse">
<stop stop-color="white"/>
<stop offset="0.227296" stop-color="#47FFDE" stop-opacity="0.8"/>
<stop offset="1" stop-color="#6D61FF" stop-opacity="0.5"/>
</linearGradient>
<linearGradient id="paint9_linear_69_596" x1="782.844" y1="666.898" x2="742.724" y2="609.804" gradientUnits="userSpaceOnUse">
<stop stop-color="white"/>
<stop offset="0.227296" stop-color="#47FFDE" stop-opacity="0.8"/>
<stop offset="1" stop-color="#6D61FF" stop-opacity="0.5"/>
</linearGradient>
<linearGradient id="paint10_linear_69_596" x1="767.683" y1="569.287" x2="787.676" y2="609.818" gradientUnits="userSpaceOnUse">
<stop stop-color="white"/>
<stop offset="0.227296" stop-color="#47FFDE" stop-opacity="0.8"/>
<stop offset="1" stop-color="#6D61FF" stop-opacity="0.5"/>
</linearGradient>
<linearGradient id="paint11_linear_69_596" x1="823.34" y1="612.126" x2="719.083" y2="670.143" gradientUnits="userSpaceOnUse">
<stop stop-color="#FCFF61"/>
<stop offset="1" stop-color="#FF4747"/>
</linearGradient>
<radialGradient id="paint12_radial_69_596" cx="0" cy="0" r="1" gradientUnits="userSpaceOnUse" gradientTransform="translate(803.472 623.182) rotate(-119.095) scale(95.5037 54.6676)">
<stop stop-color="#FF7D61"/>
<stop offset="1" stop-color="#FF7347"/>
</radialGradient>
<linearGradient id="paint13_linear_69_596" x1="782.843" y1="666.895" x2="742.724" y2="609.801" gradientUnits="userSpaceOnUse">
<stop stop-color="white"/>
<stop offset="0.227296" stop-color="#FF8947" stop-opacity="0.8"/>
<stop offset="1" stop-color="#FF6161" stop-opacity="0.5"/>
</linearGradient>
<linearGradient id="paint14_linear_69_596" x1="767.485" y1="664.053" x2="850.327" y2="706.738" gradientUnits="userSpaceOnUse">
<stop offset="0.0729167" stop-color="#B62B2B" stop-opacity="0.8"/>
<stop offset="0.791667" stop-color="#FF0030" stop-opacity="0.8"/>
<stop offset="1" stop-color="white"/>
</linearGradient>
<linearGradient id="paint15_linear_69_596" x1="784.169" y1="664.418" x2="732.875" y2="662.14" gradientUnits="userSpaceOnUse">
<stop stop-color="#FF937B" stop-opacity="0.8"/>
<stop offset="1" stop-color="#943C29" stop-opacity="0.5"/>
</linearGradient>
<linearGradient id="paint16_linear_69_596" x1="758.255" y1="617.849" x2="724.217" y2="611.957" gradientUnits="userSpaceOnUse">
<stop stop-color="#FF7B7B" stop-opacity="0.9"/>
<stop offset="1" stop-color="#942929" stop-opacity="0.5"/>
</linearGradient>
<linearGradient id="paint17_linear_69_596" x1="830.409" y1="682.006" x2="768.727" y2="659.38" gradientUnits="userSpaceOnUse">
<stop stop-color="white"/>
<stop offset="0.586705" stop-color="#FF6847" stop-opacity="0.9"/>
<stop offset="1" stop-color="#FF6187" stop-opacity="0.5"/>
</linearGradient>
<linearGradient id="paint18_linear_69_596" x1="729.761" y1="604.401" x2="760.928" y2="622.395" gradientUnits="userSpaceOnUse">
<stop stop-color="#4B1313"/>
<stop offset="0.536458" stop-color="#FF0030" stop-opacity="0.8"/>
<stop offset="0.967948" stop-color="white"/>
</linearGradient>
<linearGradient id="paint19_linear_69_596" x1="750.655" y1="622.452" x2="748.762" y2="589.806" gradientUnits="userSpaceOnUse">
<stop stop-color="#FF439D"/>
<stop offset="1" stop-color="#FF43D6" stop-opacity="0"/>
</linearGradient>
<linearGradient id="paint20_linear_69_596" x1="910.434" y1="604.726" x2="871.988" y2="567.798" gradientUnits="userSpaceOnUse">
<stop offset="0.0729167" stop-color="#B62B2B" stop-opacity="0.8"/>
<stop offset="0.791667" stop-color="#FFB9AD" stop-opacity="0.8"/>
<stop offset="1" stop-color="white"/>
</linearGradient>
<linearGradient id="paint21_linear_69_596" x1="618.226" y1="592.365" x2="690.378" y2="440.023" gradientUnits="userSpaceOnUse">
<stop offset="0.0729167" stop-color="#B62B2B" stop-opacity="0.8"/>
<stop offset="0.791667" stop-color="#FCA6EF" stop-opacity="0.8"/>
<stop offset="1" stop-color="white"/>
</linearGradient>
</defs>
</svg>
