<svg width="5453" height="5253" viewBox="0 0 5453 5253" fill="none" xmlns="http://www.w3.org/2000/svg">
<path d="M2499.74 3716.21C2205.86 3757.4 1975.72 3684.45 1841.12 3533.36C1706.53 3382.26 1667.34 3152.88 1755.67 2880.94C1844 2609 2043.11 2346.07 2293.64 2140.82C2544.17 1935.57 2846.08 1788.04 3139.97 1746.85C3433.85 1705.66 3663.99 1778.61 3798.59 1929.7C3933.18 2080.8 3972.37 2310.18 3884.04 2582.12C3795.71 2854.06 3596.6 3116.99 3346.07 3322.24C3095.54 3527.49 2793.63 3675.01 2499.74 3716.21Z" stroke="url(#paint0_linear_69_596)" stroke-width="1.20396"/>
<path d="M2466.41 3679.18C2172.41 3720.39 1942.08 3647.43 1807.35 3496.17C1672.61 3344.92 1633.44 3115.36 1721.8 2843.31C1810.17 2571.27 2009.33 2308.27 2259.92 2102.97C2510.5 1897.68 2812.5 1750.1 3106.5 1708.9C3400.5 1667.69 3630.82 1740.65 3765.56 1891.91C3900.29 2043.16 3939.47 2272.72 3851.1 2544.77C3762.74 2816.81 3563.57 3079.81 3312.98 3285.11C3062.4 3490.4 2760.41 3637.98 2466.41 3679.18Z" stroke="url(#paint1_linear_69_596)" stroke-width="0.240792"/>
<path d="M2435.72 3850.52C2091.66 3892.31 1819.5 3800.69 1657.55 3618.88C1495.6 3437.08 1443.74 3164.98 1540.53 2845.61C1637.32 2526.23 1864.42 2220.1 2153.38 1983.37C2442.34 1746.64 2793.11 1579.34 3137.18 1537.55C3481.24 1495.75 3753.4 1587.38 3915.35 1769.18C4077.3 1950.98 4129.16 2223.08 4032.37 2542.46C3935.58 2861.84 3708.48 3167.96 3419.52 3404.69C3130.56 3641.42 2779.79 3808.72 2435.72 3850.52Z" stroke="url(#paint2_linear_69_596)" stroke-width="1.20396"/>
<path d="M2435.72 3850.52C2091.66 3892.31 1819.5 3800.69 1657.55 3618.88C1495.6 3437.08 1443.74 3164.98 1540.53 2845.61C1637.32 2526.23 1864.42 2220.1 2153.38 1983.37C2442.34 1746.64 2793.11 1579.34 3137.18 1537.55C3481.24 1495.75 3753.4 1587.38 3915.35 1769.18C4077.3 1950.98 4129.16 2223.08 4032.37 2542.46C3935.58 2861.84 3708.48 3167.96 3419.52 3404.69C3130.56 3641.42 2779.79 3808.72 2435.72 3850.52Z" stroke="url(#paint3_linear_69_596)" stroke-opacity="0.2" stroke-width="1.20396"/>
<path d="M2405.33 3816.37C2047.9 3843.16 1758.2 3731.87 1578.7 3530.37C1399.2 3328.87 1329.83 3037.08 1413.25 2702.7C1496.67 2368.31 1717.08 2054.69 2006.03 1817.97C2294.98 1581.25 2652.42 1421.45 3009.86 1394.67C3367.29 1367.88 3656.99 1479.17 3836.49 1680.67C4015.99 1882.17 4085.36 2173.97 4001.94 2508.34C3918.52 2842.73 3698.11 3156.35 3409.16 3393.07C3120.21 3629.79 2762.77 3789.59 2405.33 3816.37Z" stroke="url(#paint4_linear_69_596)" stroke-width="1.20396"/>
<rect width="13.5851" height="13.5851" transform="matrix(0.0831669 -0.975578 1.0178 0.0736085 2322.79 2481.95)" fill="#00F0FF" fill-opacity="0.5"/>
<rect width="5.6016" height="5.6016" transform="matrix(0.0831669 -0.975578 1.0178 0.0736085 2325.06 1945.79)" fill="#00F0FF"/>
<rect width="7.35639" height="7.35639" transform="matrix(-0.0831669 0.975578 1.0178 0.0736085 3453.26 1841.28)" fill="#00F0FF"/>
<rect width="8.47177" height="8.47177" transform="matrix(0.0831669 -0.975578 1.0178 0.0736085 2531.62 1801.43)" fill="#00F0FF"/>
<rect width="5.02079" height="5.02079" transform="matrix(0.0831669 -0.975578 1.0178 0.0736085 2556.06 1922.13)" fill="#00F0FF"/>
<rect width="13.5851" height="13.5851" transform="matrix(0.0831669 -0.975578 1.0178 0.0736085 2575.38 2706.94)" fill="#00F0FF"/>
<rect width="13.5851" height="13.5851" transform="matrix(0.0831669 -0.975578 1.0178 0.0736085 2172.19 2944.4)" fill="#0D6597" fill-opacity="0.5"/>
<rect width="9.49462" height="9.49462" transform="matrix(0.0831669 -0.975578 1.0178 0.0736085 2061.48 2536.42)" fill="#3DFFFB"/>
<rect width="17.6577" height="17.6577" transform="matrix(0.0831669 -0.975578 1.0178 0.0736085 3196.79 3125.73)" fill="#0D6597" fill-opacity="0.5"/>
<rect width="18.8532" height="18.8532" transform="matrix(0.083172 -0.975578 1.0178 0.0736036 4009.42 2803.59)" fill="#FF0030" fill-opacity="0.5"/>
<rect width="38.0764" height="38.0764" transform="matrix(0.0831645 -0.975578 1.0178 0.0736109 4169.44 2415.56)" fill="#FF0030" fill-opacity="0.5"/>
<rect width="17.7178" height="17.7178" transform="matrix(-0.0831669 0.975578 1.0178 0.0736085 3729.84 1881.35)" fill="#FF0030" fill-opacity="0.5"/>
<rect width="18.8532" height="18.8532" transform="matrix(0.083172 -0.975578 1.0178 0.0736036 4184.35 1884.36)" fill="#FF0030" fill-opacity="0.5"/>
<rect width="18.8532" height="18.8532" transform="matrix(0.0831619 -0.975578 1.0178 0.0736134 4249.1 3140.19)" fill="#FF0030" fill-opacity="0.5"/>
<rect width="18.8532" height="18.8532" transform="matrix(0.0831669 -0.975578 1.0178 0.0736085 3688.5 3470.35)" fill="#FF0030" fill-opacity="0.5"/>
<rect width="13.2012" height="13.2012" transform="matrix(0.0831598 -0.975579 1.0178 0.0736154 3786.59 3020.36)" fill="#FF0030" fill-opacity="0.5"/>
<rect width="24.5511" height="24.5511" transform="matrix(0.0831669 -0.975578 1.0178 0.0736085 3841.45 3181.46)" fill="#FF0030" fill-opacity="0.5"/>
<rect width="16.1502" height="16.1502" transform="matrix(-0.977746 -0.276494 0.294725 -0.938458 3390.16 2413.24)" fill="#AC8D1D" fill-opacity="0.5"/>
<rect width="12.6648" height="12.6041" transform="matrix(-1.01536 -0.0734397 0.0833597 -0.977929 3075.5 2204.14)" fill="#00D1FF"/>
<rect width="15.1775" height="15.1775" transform="matrix(0.977741 0.276511 0.294708 -0.938463 2532.93 2476.72)" fill="#001AFF" fill-opacity="0.5"/>
<rect width="16.1502" height="16.1502" transform="matrix(-0.977741 -0.276511 0.294708 -0.938463 2619.48 2112.82)" fill="#AC8D1D" fill-opacity="0.5"/>
<rect width="16.1502" height="16.1502" transform="matrix(-0.977746 -0.276494 0.294725 -0.938458 3728.43 2279.71)" fill="#AC8D1D" fill-opacity="0.5"/>
<rect width="11.7043" height="11.6483" transform="matrix(-1.01536 -0.0734324 0.0833673 -0.977928 3128.24 1859.31)" fill="#AC8D1D" fill-opacity="0.5"/>
<rect width="11.2989" height="11.2989" transform="matrix(-0.977748 -0.276487 0.294733 -0.938456 3538.37 2629.67)" fill="#AC8D1D" fill-opacity="0.5"/>
<rect width="21.0131" height="21.0131" transform="matrix(-0.977741 -0.276511 0.294708 -0.938463 3689.21 2613.75)" fill="#AC8D1D" fill-opacity="0.5"/>
<rect width="9.04359" height="9.052" transform="matrix(0.0832163 -0.97603 1.01733 0.0735641 2440.26 2496.02)" fill="#00FFF0" fill-opacity="0.6"/>
<rect width="10.1886" height="10.1981" transform="matrix(0.0832057 -0.976031 1.01733 0.0735742 2357.15 3079.99)" fill="#BDFF00"/>
<rect width="11.2495" height="11.2599" transform="matrix(-0.0832057 0.976031 1.01733 0.0735742 2010.72 2383.31)" fill="#BDFF00"/>
<rect width="11.9704" height="11.9815" transform="matrix(0.0832057 -0.976031 1.01733 0.0735742 2241.02 2226.67)" fill="#BDFF00"/>
<rect width="11.9704" height="11.9815" transform="matrix(0.0831978 -0.976032 1.01733 0.0735818 3133.92 2682.6)" fill="#00FFF0" fill-opacity="0.5"/>
<rect width="6.56206" height="6.56816" transform="matrix(0.0832057 -0.976031 1.01733 0.0735742 2815.43 2823.58)" fill="#00FFF0" fill-opacity="0.5"/>
<rect width="11.9759" height="11.976" transform="matrix(-0.520418 -0.838654 0.878632 -0.503816 2594.45 3220.36)" fill="#AC8D1D" fill-opacity="0.5"/>
<rect width="8.35752" height="8.36529" transform="matrix(0.0832057 -0.976031 1.01733 0.0735742 2470.2 2952.29)" fill="#00D1FF" fill-opacity="0.6"/>
<rect width="22.5178" height="22.5387" transform="matrix(0.0832057 -0.976031 1.01733 0.0735742 2553.81 3017.54)" fill="#6100FF" fill-opacity="0.5"/>
<g opacity="0.5">
<rect width="9.04359" height="9.05199" transform="matrix(0.0832055 -0.976031 1.01733 0.0735745 1979.95 2183.79)" fill="#00FFF0" fill-opacity="0.6"/>
<rect width="10.1886" height="10.1981" transform="matrix(0.0832148 -0.976031 1.01733 0.0735655 1896.85 2767.76)" fill="#BDFF00"/>
<rect width="11.2495" height="11.2599" transform="matrix(-0.0832055 0.976031 1.01733 0.0735745 1550.41 2071.09)" fill="#BDFF00"/>
<rect width="11.9704" height="11.9815" transform="matrix(0.0831975 -0.976032 1.01732 0.0735821 1780.71 1914.44)" fill="#BDFF00"/>
<rect width="11.9704" height="11.9815" transform="matrix(0.0832055 -0.976031 1.01733 0.0735745 2673.61 2370.37)" fill="#00FFF0" fill-opacity="0.5"/>
<rect width="6.56206" height="6.56816" transform="matrix(0.0832055 -0.976031 1.01733 0.0735745 2355.12 2511.34)" fill="#00FFF0" fill-opacity="0.5"/>
<rect width="11.976" height="11.9759" transform="matrix(-0.520419 -0.838654 0.878632 -0.503815 2134.15 2908.13)" fill="#AC8D1D" fill-opacity="0.5"/>
<rect width="8.35752" height="8.36528" transform="matrix(0.0832055 -0.976031 1.01733 0.0735745 2009.9 2640.06)" fill="#00D1FF" fill-opacity="0.6"/>
<rect width="22.5178" height="22.5387" transform="matrix(0.0832013 -0.976032 1.01733 0.0735785 2093.5 2705.32)" fill="#6100FF" fill-opacity="0.5"/>
</g>
<path d="M2157.32 1987.06L2139.95 1902.14L2225.1 1930.8L2242.48 2015.72L2157.32 1987.06Z" fill="url(#paint5_linear_69_596)"/>
<path d="M2225.1 1930.81L2139.95 1902.15L2071.75 2058.09L2225.1 1930.81Z" fill="url(#paint6_linear_69_596)" fill-opacity="0.6"/>
<path d="M2225.1 1930.81L2242.58 2015.71L2071.75 2058.09L2225.1 1930.81Z" fill="url(#paint7_linear_69_596)"/>
<path d="M2489.77 1695.39L2572.41 1838.2L2441.95 1814.5L2489.77 1695.39Z" fill="url(#paint8_linear_69_596)"/>
<path d="M2489.78 1695.39L2572.42 1838.21L2815.65 1614.49L2489.78 1695.39Z" fill="url(#paint9_linear_69_596)"/>
<path d="M2288.8 1717.56L2442.02 1814.49L2489.77 1695.39L2288.8 1717.56Z" fill="url(#paint10_linear_69_596)"/>
<path d="M2446.9 1990.78L2442.01 1814.48L2288.8 1717.58L2203.75 1765.06L2228.06 1929.01L2360.12 2035.27L2446.9 1990.78Z" fill="url(#paint11_linear_69_596)" fill-opacity="0.5"/>
<path d="M2376.36 1943.15L2522.82 1985.38L2572.42 1838.2L2489.78 1695.39L2333.58 1658.37L2293.72 1800.34L2376.36 1943.15Z" fill="url(#paint12_radial_69_596)" fill-opacity="0.5"/>
<path d="M2293.72 1800.33L2376.36 1943.15L2228.04 1929L2293.72 1800.33Z" fill="url(#paint13_linear_69_596)"/>
<path d="M2293.72 1800.34L2376.36 1943.15L2815.65 1614.48L2293.72 1800.34Z" fill="url(#paint14_linear_69_596)" fill-opacity="0.9"/>
<path d="M2360.13 2035.27L2376.36 1943.15L2228.04 1929L2360.13 2035.27Z" fill="url(#paint15_linear_69_596)" fill-opacity="0.5"/>
<path d="M2203.75 1765.05L2293.72 1800.33L2228.05 1929.02L2203.75 1765.05Z" fill="url(#paint16_linear_69_596)" fill-opacity="0.5"/>
<path d="M2360.13 2035.28L2376.36 1943.16L2522.82 1985.39L2360.13 2035.28Z" fill="url(#paint17_linear_69_596)"/>
<path d="M2203.76 1765.05L2293.72 1800.33L2333.58 1658.37L2203.76 1765.05Z" fill="url(#paint18_linear_69_596)"/>
<path d="M2203.76 1765.05L2293.72 1800.33L2333.58 1658.37L2203.76 1765.05Z" fill="url(#paint19_linear_69_596)" fill-opacity="0.6"/>
<path d="M2815.66 1614.48L2376.36 1943.15L2522.82 1985.39L2815.66 1614.48Z" fill="url(#paint20_linear_69_596)" fill-opacity="0.9"/>
<path d="M2815.65 1614.47L2293.71 1800.32L2333.57 1658.35L2815.65 1614.47Z" fill="url(#paint21_linear_69_596)" fill-opacity="0.9"/>
<defs>
<linearGradient id="paint0_linear_69_596" x1="2040.12" y1="1856.23" x2="2846.98" y2="2841.09" gradientUnits="userSpaceOnUse">
<stop stop-color="#4B1313" stop-opacity="0.6"/>
<stop offset="1" stop-color="#4B1313" stop-opacity="0"/>
</linearGradient>
<linearGradient id="paint1_linear_69_596" x1="2214.07" y1="2051.51" x2="3260.24" y2="3328.48" gradientUnits="userSpaceOnUse">
<stop stop-color="#8FBCFF" stop-opacity="0.6"/>
<stop offset="1" stop-color="#8FBCFF" stop-opacity="0"/>
</linearGradient>
<linearGradient id="paint2_linear_69_596" x1="1810.65" y1="1598.63" x2="2916.63" y2="2948.61" gradientUnits="userSpaceOnUse">
<stop stop-color="white" stop-opacity="0.6"/>
<stop offset="0.34375" stop-color="#4B1313" stop-opacity="0.6"/>
<stop offset="1" stop-color="#4B1313" stop-opacity="0"/>
</linearGradient>
<linearGradient id="paint3_linear_69_596" x1="2875.97" y1="1607.51" x2="2978.88" y2="2066.77" gradientUnits="userSpaceOnUse">
<stop stop-color="#4B1313"/>
<stop offset="0.234164" stop-color="white" stop-opacity="0.765836"/>
<stop offset="1" stop-color="#4B1313" stop-opacity="0"/>
</linearGradient>
<linearGradient id="paint4_linear_69_596" x1="1944.63" y1="1749.04" x2="2745.34" y2="2726.4" gradientUnits="userSpaceOnUse">
<stop stop-color="#4B1313" stop-opacity="0.6"/>
<stop offset="1" stop-color="#4B1313" stop-opacity="0"/>
</linearGradient>
<linearGradient id="paint5_linear_69_596" x1="2135.78" y1="1955.27" x2="2246.54" y2="1963.95" gradientUnits="userSpaceOnUse">
<stop stop-color="#FF8660"/>
<stop offset="1" stop-color="#5E0C1B" stop-opacity="0"/>
</linearGradient>
<linearGradient id="paint6_linear_69_596" x1="2161.78" y1="1890.86" x2="2077.84" y2="2060.81" gradientUnits="userSpaceOnUse">
<stop offset="0.170794" stop-color="#A93B3B"/>
<stop offset="0.537799" stop-color="#ED8F5A" stop-opacity="0.8"/>
<stop offset="0.791667" stop-color="white"/>
</linearGradient>
<linearGradient id="paint7_linear_69_596" x1="2072.35" y1="2058.76" x2="2234.17" y2="2002.87" gradientUnits="userSpaceOnUse">
<stop stop-color="#FF603D"/>
<stop offset="0.427083" stop-color="#FF507A" stop-opacity="0.69"/>
<stop offset="0.977116" stop-color="#FF6B3D"/>
</linearGradient>
<linearGradient id="paint8_linear_69_596" x1="2370.08" y1="1946.5" x2="2255.4" y2="1776.56" gradientUnits="userSpaceOnUse">
<stop stop-color="white"/>
<stop offset="0.227296" stop-color="#47FFDE" stop-opacity="0.8"/>
<stop offset="1" stop-color="#6D61FF" stop-opacity="0.5"/>
</linearGradient>
<linearGradient id="paint9_linear_69_596" x1="2370.09" y1="1946.51" x2="2255.4" y2="1776.57" gradientUnits="userSpaceOnUse">
<stop stop-color="white"/>
<stop offset="0.227296" stop-color="#47FFDE" stop-opacity="0.8"/>
<stop offset="1" stop-color="#6D61FF" stop-opacity="0.5"/>
</linearGradient>
<linearGradient id="paint10_linear_69_596" x1="2325" y1="1662.96" x2="2381.66" y2="1782.29" gradientUnits="userSpaceOnUse">
<stop stop-color="white"/>
<stop offset="0.227296" stop-color="#47FFDE" stop-opacity="0.8"/>
<stop offset="1" stop-color="#6D61FF" stop-opacity="0.5"/>
</linearGradient>
<linearGradient id="paint11_linear_69_596" x1="2493.44" y1="1786.95" x2="2182.59" y2="1966.84" gradientUnits="userSpaceOnUse">
<stop stop-color="#FCFF61"/>
<stop offset="1" stop-color="#FF4747"/>
</linearGradient>
<radialGradient id="paint12_radial_69_596" cx="0" cy="0" r="1" gradientUnits="userSpaceOnUse" gradientTransform="translate(2433.07 1819.27) rotate(-120.057) scale(279.728 164.554)">
<stop stop-color="#FF7D61"/>
<stop offset="1" stop-color="#FF7347"/>
</radialGradient>
<linearGradient id="paint13_linear_69_596" x1="2370.09" y1="1946.51" x2="2255.4" y2="1776.56" gradientUnits="userSpaceOnUse">
<stop stop-color="white"/>
<stop offset="0.227296" stop-color="#FF8947" stop-opacity="0.8"/>
<stop offset="1" stop-color="#FF6161" stop-opacity="0.5"/>
</linearGradient>
<linearGradient id="paint14_linear_69_596" x1="2323.52" y1="1938.39" x2="2569.32" y2="2071.15" gradientUnits="userSpaceOnUse">
<stop offset="0.0729167" stop-color="#B62B2B" stop-opacity="0.8"/>
<stop offset="0.791667" stop-color="#FF0030" stop-opacity="0.8"/>
<stop offset="1" stop-color="white"/>
</linearGradient>
<linearGradient id="paint15_linear_69_596" x1="2374.13" y1="1939.29" x2="2218.62" y2="1931.59" gradientUnits="userSpaceOnUse">
<stop stop-color="#FF937B" stop-opacity="0.8"/>
<stop offset="1" stop-color="#943C29" stop-opacity="0.5"/>
</linearGradient>
<linearGradient id="paint16_linear_69_596" x1="2295.95" y1="1804.19" x2="2193.13" y2="1785.29" gradientUnits="userSpaceOnUse">
<stop stop-color="#FF7B7B" stop-opacity="0.9"/>
<stop offset="1" stop-color="#942929" stop-opacity="0.5"/>
</linearGradient>
<linearGradient id="paint17_linear_69_596" x1="2514.24" y1="1989.98" x2="2329.64" y2="1918.8" gradientUnits="userSpaceOnUse">
<stop stop-color="white"/>
<stop offset="0.586705" stop-color="#FF6847" stop-opacity="0.9"/>
<stop offset="1" stop-color="#FF6187" stop-opacity="0.5"/>
</linearGradient>
<linearGradient id="paint18_linear_69_596" x1="2209.63" y1="1765.37" x2="2301.77" y2="1821.08" gradientUnits="userSpaceOnUse">
<stop stop-color="#4B1313"/>
<stop offset="0.536458" stop-color="#FF0030" stop-opacity="0.8"/>
<stop offset="0.967948" stop-color="white"/>
</linearGradient>
<linearGradient id="paint19_linear_69_596" x1="2272.85" y1="1817.64" x2="2267.29" y2="1722.78" gradientUnits="userSpaceOnUse">
<stop stop-color="#FF439D"/>
<stop offset="1" stop-color="#FF43D6" stop-opacity="0"/>
</linearGradient>
<linearGradient id="paint20_linear_69_596" x1="2757.72" y1="1764.64" x2="2646.24" y2="1652.87" gradientUnits="userSpaceOnUse">
<stop offset="0.0729167" stop-color="#B62B2B" stop-opacity="0.8"/>
<stop offset="0.791667" stop-color="#FFB9AD" stop-opacity="0.8"/>
<stop offset="1" stop-color="white"/>
</linearGradient>
<linearGradient id="paint21_linear_69_596" x1="1871.39" y1="1731.42" x2="2074.94" y2="1280.44" gradientUnits="userSpaceOnUse">
<stop offset="0.0729167" stop-color="#B62B2B" stop-opacity="0.8"/>
<stop offset="0.791667" stop-color="#FCA6EF" stop-opacity="0.8"/>
<stop offset="1" stop-color="white"/>
</linearGradient>
</defs>
</svg>
